<svg width="962" height="151" viewBox="0 0 962 151" fill="none" xmlns="http://www.w3.org/2000/svg">
<g style="mix-blend-mode:screen">
<path d="M382.046 0.293945C400.264 4.40847 414.246 7.96877 417.092 9.85809C440.824 25.6024 467.556 27.0215 479.349 43.446C491.851 39.1887 494.002 41.5063 509.065 42.4972C509.551 41.4979 510.16 40.2972 510.978 38.7521C512.809 35.3275 515.198 32.2944 518.027 29.8009C525.879 22.6971 536.792 18.633 549.148 16.9116C571.514 13.7879 597.49 19.6658 615.144 29.4483C632.027 38.7941 639.524 54.4545 629.929 67.6041C643.102 64.8919 664.266 75.3461 669.094 60.3407C671.487 56.7339 674.371 53.5455 677.647 50.8857C703.099 29.7253 743.813 31.8078 772.797 47.8796C789.187 56.9652 799.375 70.0141 814.816 79.7882C835.64 92.9798 860.706 96.3302 887.954 97.6737C895.212 98.0264 897.903 104.391 892.96 107.23C916.005 107.515 939.089 108.405 961.046 112.058V112.469C926.132 118.288 888.548 116.911 852.816 117.617C831.734 118.031 810.653 118.311 789.572 118.456C765.231 125.51 691.098 138.072 667.027 131.194C642.038 131.388 638.891 125.93 627.939 122.604L596.588 131.388C595.418 132.963 594.105 134.406 592.67 135.695C582.296 145.159 558.819 150.65 543.78 142.564C533.9 137.257 523.341 134.041 512.374 132.059C496.602 131.564 474.752 129.448 467.016 134.856C446.03 149.55 413.668 151.792 382.046 149.71V0.293945Z" fill="white"/>
</g>
<g style="mix-blend-mode:screen">
<path d="M509.921 106.944C530.059 131.656 585.435 124.863 585.435 124.863C613.494 123.007 627.855 110.647 627.855 110.647C627.855 110.647 648.717 119.296 690.219 117.449C731.72 115.601 728.558 103.854 745.641 99.521C762.725 95.1882 802.653 110.647 862.41 110.026C877.511 109.874 887.499 108.455 894.032 106.423C897.41 103.325 894.595 98.0263 887.946 97.6569C860.698 96.3133 835.647 92.963 814.808 79.7713C799.383 69.9972 789.179 56.9483 772.79 47.8628C743.806 31.791 703.106 29.7085 677.639 50.8689C674.363 53.5287 671.479 56.717 669.086 60.3239C660.972 75.3293 643.095 64.875 629.922 67.5873C639.516 54.4376 632.019 38.7772 615.136 29.4314C597.49 19.6489 571.553 13.771 549.186 16.8947C536.846 18.6161 525.917 22.6803 518.066 29.7841C515.237 32.2776 512.848 35.3107 511.016 38.7353C510.199 40.2803 509.59 41.4811 509.104 42.4803C494.064 41.4895 491.889 39.1719 479.387 43.4292C467.595 27.0215 440.863 25.6024 417.131 9.84127C414.285 7.95195 400.302 4.39162 382.085 0.2771V135.922C481.439 145.528 490.123 82.6431 509.921 106.944Z" fill="white"/>
</g>
<path d="M467.016 134.855C474.729 129.448 496.601 131.564 512.374 132.059C523.341 134.041 533.9 137.257 543.779 142.564C558.819 150.65 582.296 145.159 592.67 135.695C594.105 134.406 595.417 132.963 596.588 131.388L627.939 122.604C638.891 125.963 642.038 131.387 667.027 131.194C691.105 138.071 765.231 125.51 789.557 118.465C810.638 118.263 831.719 117.983 852.8 117.625C888.502 116.92 926.116 118.297 961.031 112.478V112.066C939.073 108.413 915.989 107.523 892.944 107.238C893.327 107.014 893.689 106.75 894.024 106.448C887.522 108.481 877.534 109.9 862.402 110.051C802.645 110.672 769.219 99.5966 752.112 103.921C735.006 108.245 731.681 115.618 690.188 117.474C648.694 119.329 627.824 110.672 627.824 110.672C627.824 110.672 613.44 123.032 585.404 124.888C585.404 124.888 530.012 131.681 509.875 106.969C490.077 82.6682 481.392 145.595 382 135.947V149.735C413.668 151.792 446.03 149.55 467.016 134.855Z" fill="#EAEAEA"/>
<path d="M629.991 67.5705C621.923 79.5111 604.308 82.937 604.308 82.937C624.816 83.5332 639.5 76.1691 649.203 68.4018C642.724 67.8057 635.891 66.3782 629.991 67.5705Z" fill="#EAEAEA"/>
<path d="M646.935 95.5325C648.279 94.4329 649.712 93.4688 651.216 92.6523C652.704 91.8126 654.255 91.0821 655.843 90.3935C657.432 89.705 658.998 89.1088 660.602 88.521C662.206 87.9332 663.834 87.4798 665.469 87.0179C668.731 86.0943 672.04 85.3386 675.372 84.776C678.703 84.2134 682.058 83.7431 685.398 83.4156C698.831 82.2504 712.336 82.4893 725.727 84.1294L735.661 85.3805C738.916 85.8004 742.186 86.1279 745.456 86.4554C751.996 87.0599 758.567 87.5301 765.1 87.7401C771.63 88.001 778.168 87.858 784.682 87.3118C787.917 87.0364 791.126 86.4748 794.277 85.6324C795.847 85.224 797.381 84.6619 798.858 83.953C800.364 83.2401 801.741 82.239 802.923 80.9973C802.054 82.6086 800.891 84.0089 799.506 85.1118C798.12 86.2384 796.632 87.2064 795.063 88.0004C791.934 89.5418 788.671 90.7373 785.322 91.5691C778.687 93.154 771.929 94.0537 765.139 94.2561C758.392 94.5223 751.637 94.3597 744.908 93.7691C741.553 93.5004 738.198 93.0974 734.882 92.6355C731.566 92.1737 728.288 91.6195 725.01 91.166C711.974 89.2389 698.831 88.3102 685.676 88.3866C682.39 88.3866 679.105 88.5798 675.827 88.8149C672.549 89.05 669.279 89.3943 666.024 89.9149C662.769 90.4355 659.53 91.0905 656.329 91.9554C653.088 92.7713 649.937 93.9708 646.935 95.5325V95.5325Z" fill="#EAEAEA"/>
<path style="mix-blend-mode:overlay" d="M892.959 106.919C893.344 106.698 893.706 106.434 894.039 106.129C897.417 103.031 894.602 97.6905 887.954 97.363C860.705 96.0195 835.655 92.6691 814.815 79.4774C799.39 69.7034 789.186 56.6544 772.797 47.5689C743.813 31.5055 703.114 29.4146 677.647 50.575C674.369 53.2353 671.484 56.4268 669.094 60.0384C660.98 75.0354 643.102 64.5812 629.929 67.2934C639.523 54.1437 632.027 38.4834 615.144 29.1375C597.49 19.3634 571.552 13.4772 549.186 16.6008C536.846 18.2802 525.917 22.3863 518.065 29.4902C515.236 31.9837 512.848 35.0168 511.016 38.4414C510.199 39.9864 509.589 41.1872 509.103 42.1864C494.064 41.1956 491.889 38.878 479.387 43.1353C467.594 26.7276 440.862 25.3085 417.131 9.54736C414.215 7.67484 400.263 4.14811 382.046 0V149.416C413.668 151.498 446.061 149.256 467.016 134.562C474.728 129.154 496.601 131.278 512.374 131.765C523.341 133.747 533.899 136.963 543.779 142.27C558.819 150.356 582.296 144.865 592.669 135.401C594.107 134.114 595.419 132.671 596.587 131.094L627.939 122.31C638.891 125.669 642.038 131.102 667.027 130.901C691.105 137.778 765.231 125.216 789.557 118.171C810.638 117.969 831.719 117.689 852.8 117.331C888.502 116.634 926.116 118.003 961.031 112.184V111.781C939.088 108.094 916.005 107.204 892.959 106.919Z" fill="url(#paint0_linear)"/>
<g style="mix-blend-mode:screen">
<path d="M381.969 0.293945C369.951 4.40847 360.727 7.96877 358.849 9.85809C343.193 25.6024 325.558 27.0215 317.778 43.446C309.531 39.1887 308.111 41.5063 298.174 42.4972C297.854 41.4979 297.452 40.2972 296.912 38.7521C295.704 35.3275 294.128 32.2944 292.262 29.8009C287.082 22.6971 279.883 18.633 271.732 16.9116C256.976 13.7879 239.84 19.6658 228.193 29.4483C217.056 38.7941 212.11 54.4545 218.439 67.6041C209.749 64.8919 195.788 75.3461 192.602 60.3407C191.024 56.7339 189.121 53.5455 186.96 50.8857C170.169 29.7253 143.309 31.8078 124.189 47.8796C113.376 56.9652 106.655 70.0141 96.4689 79.7882C82.7312 92.9798 66.195 96.3302 48.219 97.6737C43.4311 98.0264 41.6554 104.391 44.9168 107.23C29.7137 107.515 14.4852 108.405 -0.000447438 112.058V112.469C23.0331 118.288 47.8272 116.911 71.4001 117.617C85.3074 118.031 99.2147 118.311 113.122 118.456C129.18 125.51 178.086 138.072 193.966 131.194C210.451 131.388 212.527 125.93 219.752 122.604L240.435 131.388C241.207 132.963 242.073 134.406 243.02 135.695C249.863 145.159 265.351 150.65 275.273 142.564C281.791 137.257 288.756 134.041 295.991 132.059C306.397 131.564 320.811 129.448 325.914 134.856C339.759 149.55 361.108 151.792 381.969 149.71V0.293945Z" fill="white"/>
</g>
<g style="mix-blend-mode:screen">
<path d="M297.61 106.944C284.325 131.656 247.793 124.863 247.793 124.863C229.282 123.007 219.808 110.647 219.808 110.647C219.808 110.647 206.045 119.296 178.667 117.449C151.288 115.601 153.374 103.854 142.104 99.521C130.834 95.1882 104.493 110.647 65.0709 110.026C55.1085 109.874 48.5195 108.455 44.2099 106.423C41.9814 103.325 43.8385 98.0263 48.2244 97.6569C66.2005 96.3133 82.7264 92.963 96.4743 79.7713C106.65 69.9972 113.382 56.9483 124.194 47.8628C143.315 31.791 170.164 29.7085 186.965 50.8689C189.126 53.5287 191.029 56.717 192.608 60.3239C197.96 75.3293 209.755 64.875 218.445 67.5873C212.115 54.4376 217.061 38.7772 228.199 29.4314C239.84 19.6489 256.951 13.771 271.707 16.8947C279.847 18.6161 287.057 22.6803 292.237 29.7841C294.103 32.2776 295.679 35.3107 296.887 38.7353C297.427 40.2803 297.829 41.4811 298.149 42.4803C308.071 41.4895 309.506 39.1719 317.753 43.4292C325.533 27.0215 343.168 25.6024 358.824 9.84127C360.702 7.95195 369.926 4.39162 381.944 0.2771V135.922C316.4 145.528 310.671 82.6431 297.61 106.944Z" fill="white"/>
</g>
<path d="M325.914 134.855C320.826 129.448 306.397 131.564 295.992 132.059C288.756 134.041 281.791 137.257 275.273 142.564C265.351 150.65 249.863 145.159 243.02 135.695C242.073 134.406 241.207 132.963 240.435 131.388L219.752 122.604C212.527 125.963 210.451 131.387 193.966 131.194C178.081 138.071 129.18 125.51 113.132 118.465C99.2252 118.263 85.3178 117.983 71.4105 117.625C47.858 116.92 23.0436 118.297 0.00997328 112.478V112.066C14.4956 108.413 29.7241 107.523 44.9272 107.238C44.6746 107.014 44.436 106.75 44.2149 106.448C48.5041 108.481 55.0931 109.9 65.0759 110.051C104.498 110.672 126.55 99.5966 137.835 103.921C149.12 108.245 151.313 115.618 178.687 117.474C206.061 119.329 219.829 110.672 219.829 110.672C219.829 110.672 229.318 123.032 247.813 124.888C247.813 124.888 284.355 131.681 297.64 106.969C310.701 82.6682 316.43 145.595 382 135.947V149.735C361.108 151.792 339.759 149.55 325.914 134.855Z" fill="#EAEAEA"/>
<path d="M218.399 67.5705C223.721 79.5111 235.342 82.937 235.342 82.937C221.813 83.5332 212.126 76.1691 205.725 68.4018C209.999 67.8057 214.507 66.3782 218.399 67.5705Z" fill="#EAEAEA"/>
<path d="M207.221 95.5325C206.334 94.4329 205.389 93.4688 204.397 92.6523C203.415 91.8126 202.392 91.0821 201.344 90.3935C200.296 89.705 199.263 89.1088 198.205 88.521C197.146 87.9332 196.073 87.4798 194.994 87.0179C192.842 86.0943 190.659 85.3386 188.461 84.776C186.263 84.2134 184.05 83.7431 181.847 83.4156C172.985 82.2504 164.076 82.4893 155.241 84.1294L148.688 85.3805C146.541 85.8004 144.383 86.1279 142.226 86.4554C137.911 87.0599 133.576 87.5301 129.267 87.7401C124.959 88.001 120.646 87.858 116.348 87.3118C114.214 87.0364 112.097 86.4748 110.019 85.6324C108.983 85.224 107.971 84.6619 106.996 83.953C106.003 83.2401 105.095 82.239 104.315 80.9973C104.888 82.6086 105.655 84.0089 106.569 85.1118C107.483 86.2384 108.465 87.2064 109.5 88.0004C111.564 89.5418 113.717 90.7373 115.926 91.5691C120.303 93.154 124.762 94.0537 129.241 94.2561C133.692 94.5223 138.148 94.3597 142.587 93.7691C144.801 93.5004 147.014 93.0974 149.202 92.6355C151.39 92.1737 153.552 91.6195 155.714 91.166C164.314 89.2389 172.985 88.3102 181.663 88.3866C183.831 88.3866 185.998 88.5798 188.161 88.8149C190.323 89.05 192.481 89.3943 194.628 89.9149C196.775 90.4355 198.912 91.0905 201.023 91.9554C203.162 92.7713 205.24 93.9708 207.221 95.5325V95.5325Z" fill="#EAEAEA"/>
<path style="mix-blend-mode:overlay" d="M44.9171 106.919C44.6633 106.698 44.4245 106.434 44.2047 106.129C41.9762 103.031 43.8333 97.6905 48.2192 97.363C66.1953 96.0195 82.7212 92.6691 96.4691 79.4774C106.645 69.7034 113.377 56.6544 124.189 47.5689C143.31 31.5055 170.159 29.4146 186.96 50.575C189.123 53.2353 191.026 56.4268 192.603 60.0384C197.955 75.0354 209.749 64.5812 218.44 67.2934C212.11 54.1437 217.056 38.4834 228.194 29.1375C239.84 19.3634 256.951 13.4772 271.706 16.6008C279.847 18.2802 287.057 22.3863 292.237 29.4902C294.103 31.9837 295.679 35.0168 296.887 38.4414C297.427 39.9864 297.828 41.1872 298.149 42.1864C308.071 41.1956 309.506 38.878 317.753 43.1353C325.533 26.7276 343.168 25.3085 358.824 9.54736C360.747 7.67484 369.952 4.14811 381.969 0V149.416C361.109 151.498 339.739 149.256 325.914 134.562C320.826 129.154 306.397 131.278 295.992 131.765C288.757 133.747 281.791 136.963 275.273 142.27C265.351 150.356 249.863 144.865 243.02 135.401C242.072 134.114 241.206 132.671 240.435 131.094L219.752 122.31C212.527 125.669 210.452 131.102 193.966 130.901C178.081 137.778 129.18 125.216 113.132 118.171C99.2252 117.969 85.3178 117.689 71.4105 117.331C47.858 116.634 23.0436 118.003 0.00998273 112.184V111.781C14.4855 108.094 29.714 107.204 44.9171 106.919Z" fill="url(#paint1_linear)"/>
<defs>
<linearGradient id="paint0_linear" x1="671.546" y1="9.7237" x2="671.546" y2="136.527" gradientUnits="userSpaceOnUse">
<stop offset="0.01" stop-color="#F3B43F" stop-opacity="0"/>
<stop offset="1" stop-color="#F3B43F" stop-opacity="0.6"/>
</linearGradient>
<linearGradient id="paint1_linear" x1="190.985" y1="9.7237" x2="190.985" y2="136.527" gradientUnits="userSpaceOnUse">
<stop offset="0.01" stop-color="#F3B43F" stop-opacity="0"/>
<stop offset="1" stop-color="#F3B43F" stop-opacity="0.6"/>
</linearGradient>
</defs>
</svg>
