<svg width="533" height="99" viewBox="0 0 533 99" fill="none" xmlns="http://www.w3.org/2000/svg">
<path d="M379 58.6116V21L394.192 16.0433C394.192 21 384.5 13 405.5 16.0433C405.5 16.0433 410.143 8.32797 416.5 16.0433C422.857 23.7586 426.437 19.2228 430.5 21C434.563 22.7772 419.157 35.6913 454.5 35.6913C454.419 39.9227 438.918 35.6913 438.918 35.6913C442.633 36.5517 413.512 28.8857 416.5 25.5711C425.702 15.3592 460.103 34.8802 472.158 39.6829C484.213 44.4856 512.048 53.5339 528.269 45.0005C532.968 42.5321 533.95 43.6464 532.167 46.284C529.492 55.029 507.226 78.2244 484.65 72.3356C462.074 66.4468 460.76 85.7352 443.007 92.1458C425.254 98.5564 422.184 70.1987 412.101 77.1524C402.017 84.106 386.014 72.3074 386.014 72.3074V60.7203C381.621 59.5566 379 58.6116 379 58.6116Z" fill="white"/>
<path d="M402.232 70.1915C413.412 65.9036 413.412 49.8453 413.412 49.8453C413.412 49.8453 415.604 72.3284 427.22 74.4723C438.837 76.6162 436.427 65.3747 442.343 66.9756C442.343 66.9756 446.29 80.9041 451.549 74.7332C456.808 68.5624 461.851 60.2476 477.187 63.0756C489.925 65.424 516.715 61.0233 531.087 48.738C525.765 58.6819 505.333 77.7234 484.638 72.3213C462.062 66.4325 460.748 85.7209 442.995 92.1315C425.242 98.5421 422.173 70.1844 412.089 77.1381C403.219 83.2666 389.771 74.8884 386.664 72.7797V53.1246C386.664 53.1246 391.045 74.4652 402.232 70.1915Z" fill="#EBEBEB"/>
<g style="mix-blend-mode:overlay">
<path d="M402.232 70.1915C413.412 65.9036 413.412 49.8453 413.412 49.8453C413.412 49.8453 415.604 72.3284 427.22 74.4723C438.837 76.6162 436.427 65.3747 442.343 66.9756C442.343 66.9756 446.29 80.9041 451.549 74.7332C456.808 68.5624 461.851 60.2476 477.187 63.0756C489.925 65.424 516.715 61.0233 531.087 48.738C525.765 58.6819 505.333 77.7234 484.638 72.3213C462.062 66.4325 460.748 85.7209 442.995 92.1315C425.242 98.5421 422.173 70.1844 412.089 77.1381C403.219 83.2666 389.771 74.8884 386.664 72.7797V53.1246C386.664 53.1246 391.045 74.4652 402.232 70.1915Z" fill="url(#paint0_linear)"/>
</g>
<path d="M411.387 60.5L413.843 17.9049L388.5 21.0433C383.574 17.1785 374.398 27.736 353.915 9.84403C353.915 9.84403 338.371 -5.55136 320.578 2.16397C302.786 9.8793 313.547 13.9838 302.175 15.761C290.803 17.5382 256.634 6.26847 257.934 30.5711C258.161 34.8025 260.163 38.0819 263.321 40.6912C252.924 41.5516 242.442 41.0791 234.078 37.7645C208.325 27.5526 204.03 39.8802 170.29 44.6829C136.55 49.4856 58.6473 58.5338 13.2495 50.0004C0.0967159 47.5321 -2.65213 48.6464 2.33864 51.284C9.8248 60.029 72.1445 83.2243 135.328 77.3356C198.512 71.4468 202.19 90.7351 251.877 97.1458C301.564 103.556 310.155 75.1987 338.378 82.1524C366.6 89.106 411.387 77.3074 411.387 77.3074V65.7203C411.733 54.5 411.387 60.5 411.387 60.5Z" fill="white"/>
<path d="M365.996 75.1915C334.707 70.9036 334.707 54.8453 334.707 54.8453C334.707 54.8453 328.572 77.3284 296.061 79.4723C263.549 81.6162 270.294 70.3747 253.737 71.9756C253.737 71.9756 242.689 85.9041 227.97 79.7332C213.251 73.5624 199.137 65.2476 156.215 68.0756C120.565 70.424 45.5862 66.0233 5.36108 53.738C20.2554 63.6819 77.4414 82.7234 135.362 77.3213C198.546 71.4325 202.224 90.7209 251.91 97.1315C301.597 103.542 310.188 75.1844 338.411 82.1381C363.235 88.2666 404.305 79.43 413 77.3213V51.5C413 51.5 397.306 79.4652 365.996 75.1915Z" fill="#EBEBEB"/>
<path d="M285.117 45.2047C291.037 43.6179 297.919 40.7546 305.88 36.1071C305.88 36.1071 282.784 46.0863 262.99 40.3949L263.322 40.677C252.924 41.5374 242.442 41.0649 234.079 37.7503C234.092 37.7503 260.345 52.5181 285.117 45.2047Z" fill="#EBEBEB"/>
<path d="M321.521 22.1857C321.521 22.1857 304.853 18.9768 309.824 9.61829C308.063 12.4392 308.921 14.2588 304.119 15.3942C307.537 19.668 312.957 22.905 321.521 22.1857Z" fill="#EBEBEB"/>
<path style="mix-blend-mode:overlay" d="M411.387 60.5L413.843 17.9049L388.499 21.0433C383.573 17.1785 374.398 27.736 353.915 9.84403C353.915 9.84403 338.371 -5.55136 320.578 2.16397C302.785 9.8793 313.547 13.9838 302.174 15.761C290.802 17.5382 256.634 6.26847 257.933 30.5711C258.161 34.8025 260.162 38.0819 263.321 40.6912C252.923 41.5516 242.441 41.0791 234.078 37.7645C208.324 27.5526 204.029 39.8802 170.289 44.6829C136.55 49.4856 58.6468 58.5338 13.249 50.0004C0.0962276 47.5321 -2.65262 48.6464 2.33815 51.284C9.82431 60.029 72.144 83.2243 135.328 77.3356C198.512 71.4468 202.19 90.7351 251.877 97.1458C301.564 103.556 310.155 75.1987 338.377 82.1524C366.6 89.106 411.387 77.3074 411.387 77.3074V65.7203C423.682 64.5566 411.387 60.5 411.387 60.5Z" fill="url(#paint1_linear)"/>
<defs>
<linearGradient id="paint0_linear" x1="458.876" y1="48.738" x2="458.876" y2="93.0824" gradientUnits="userSpaceOnUse">
<stop offset="0.114583" stop-color="#F3B43F" stop-opacity="0.6"/>
<stop offset="0.348958" stop-color="#F3B43F" stop-opacity="0.4"/>
<stop offset="1" stop-color="#F3B43F" stop-opacity="0.16"/>
</linearGradient>
<linearGradient id="paint1_linear" x1="215.515" y1="6.48709" x2="215.515" y2="100.207" gradientUnits="userSpaceOnUse">
<stop offset="0.01" stop-color="#F3B43F" stop-opacity="0"/>
<stop offset="0.42" stop-color="#F3B43F" stop-opacity="0.16"/>
<stop offset="1" stop-color="#F3B43F" stop-opacity="0.4"/>
</linearGradient>
</defs>
</svg>
