<svg width="313" height="40" viewBox="0 0 313 40" fill="none" xmlns="http://www.w3.org/2000/svg">
<path d="M309.715 26.5746C297.798 26.1412 286.863 25.0609 277.755 20.8013C271.008 17.6469 266.068 14.5791 259.395 10.5021C226.502 -9.58539 204.689 4.64522 193.57 11.4742C192.191 12.286 190.928 13.3132 189.822 14.5234C186.278 19.368 202.723 15.9907 196.966 16.8667C201.162 12.6226 197.885 7.57987 190.508 4.55235C182.794 1.39481 171.45 -0.50283 161.67 0.506345C156.279 1.06356 151.504 2.36374 148.071 4.66689C147.472 5.06623 146.903 5.51539 146.368 6.01038C146.098 5.84734 145.825 5.67708 145.551 5.49959C145.551 5.49959 137.49 -0.416125 128.263 2.54639C119.037 5.50891 124.618 7.09074 118.719 7.77487C112.82 8.45901 95.1039 4.12514 95.7763 13.4585C95.8927 15.0713 96.9311 16.3467 98.5711 17.3466C93.1802 17.6809 70.6577 17.4952 66.3166 16.2229C52.9614 12.3007 50.7341 17.0308 33.2393 18.882C15.7445 20.7332 -7.57813 24.2034 -31.1192 20.9251C-37.9288 19.9778 -39.3673 20.4051 -36.7797 21.4204C-32.8982 24.7792 -0.578507 33.6946 32.1895 31.4317C64.9575 29.1688 66.8642 36.5735 92.6241 39.0438C117.706 41.446 122.597 31.1809 136.336 33.1002C137.819 33.7079 139.207 34.5609 140.453 35.6293C149.699 43.2724 177.536 35.3538 177.536 35.3538C189.796 34.7533 196.081 30.7661 196.081 30.7661C196.081 30.7661 205.197 33.5522 223.319 32.9578C241.441 32.3635 240.076 28.5713 247.538 27.1752C255 25.7791 272.45 30.7661 298.561 30.5804C305.161 30.5308 309.525 30.0727 312.365 29.4164C313.849 28.4041 312.62 26.6799 309.715 26.5746Z" fill="white"/>
<path d="M32.178 31.4351C64.9432 29.1722 66.8527 36.5769 92.6126 39.0472C117.694 41.4494 122.586 31.1843 136.324 33.1036C137.807 33.7113 139.196 34.5643 140.441 35.6327C149.688 43.2759 177.525 35.3572 177.525 35.3572C189.785 34.7567 196.069 30.7695 196.069 30.7695C196.069 30.7695 205.185 33.5556 223.307 32.9612C241.429 32.3669 240.064 28.5747 247.527 27.1786C254.989 25.7825 272.438 30.7695 298.55 30.5838C301.103 30.5652 303.302 30.4847 305.223 30.3547C287.975 27.4665 264.025 23.1543 253.266 19.8296C235.482 14.3503 247.498 31.6518 195.587 26.674C195.587 26.674 185.012 30.6085 172.996 29.036C160.98 27.4634 133.989 13.0687 119.655 26.123C105.321 39.1772 74.9532 23.7424 53.804 26.123C36.3063 28.0918 -6.51711 27.7141 -37.1174 21.2907L-36.7968 21.4238C-32.9097 24.7826 -0.589982 33.698 32.178 31.4351Z" fill="#EBEBEB"/>
</svg>
