<svg width="129" height="220" viewBox="0 0 129 220" fill="none" xmlns="http://www.w3.org/2000/svg">
<g opacity="0.6" clip-path="url(#clip0)">
<path d="M72.0782 30.6487C72.1304 30.6247 72.177 30.5902 72.2152 30.5473C72.2534 30.5045 72.2823 30.4541 72.3002 30.3995L76.0998 3.51009C76.1107 3.44137 76.1077 3.37113 76.091 3.30351C76.0743 3.23589 76.0442 3.17226 76.0026 3.11636C75.9406 2.99412 75.8346 2.89974 75.7061 2.85215L71.8685 2.22594C71.7999 2.21553 71.7299 2.21886 71.6626 2.23582C71.5954 2.25277 71.5323 2.28296 71.4769 2.32464C71.4215 2.36632 71.375 2.41864 71.3401 2.47854C71.3053 2.53844 71.2827 2.6047 71.2738 2.67348L67.5452 28.2577L17.2183 84.7442C17.1263 84.8474 17.0792 84.983 17.0873 85.1212C17.0955 85.2594 17.1582 85.3889 17.2617 85.4811L20.2115 88.1092C20.315 88.2014 20.4508 88.2488 20.589 88.241C20.7272 88.2332 20.8565 88.1709 20.9485 88.0676L72.0938 30.6626L72.0782 30.6487Z" fill="#FFBE31"/>
<path d="M71.8789 3.91089C71.7036 3.75952 71.5736 3.56271 71.5032 3.34223C71.4328 3.12175 71.4247 2.88626 71.48 2.66181C71.6433 2.21322 71.9649 1.83999 72.3844 1.61214C72.8038 1.38429 73.2925 1.31745 73.7585 1.42418C74.3206 1.46221 74.8585 1.66892 75.3019 2.01726C75.6101 2.28095 75.8107 2.64859 75.8655 3.05008C75.8625 3.21203 75.8276 3.3717 75.7627 3.51999C75.6979 3.66828 75.6044 3.80226 75.4876 3.91424C75.2161 4.1251 74.9034 4.27669 74.5695 4.35921C74.2356 4.44173 73.8879 4.45334 73.5489 4.39333C72.9384 4.37956 72.3472 4.17507 71.8581 3.80857L71.8789 3.91089Z" fill="#0058A5"/>
<path d="M75.1597 2.33712C75.4106 2.5484 75.5754 2.84431 75.6227 3.16861C75.6275 3.29362 75.6027 3.41796 75.5503 3.53142C75.4978 3.64488 75.4193 3.74424 75.3211 3.82145C75.0832 4.01374 74.8057 4.15128 74.5084 4.22428C74.2111 4.29728 73.9013 4.30395 73.6008 4.24385C73.0458 4.22482 72.5091 4.03863 72.061 3.70971C71.9256 3.59703 71.823 3.45014 71.7638 3.2844C71.7046 3.11865 71.691 2.94018 71.7245 2.76761C71.8882 2.38793 72.1826 2.07968 72.5544 1.89867C72.9262 1.71767 73.3509 1.67588 73.7516 1.78079C74.267 1.81555 74.7592 2.01001 75.1597 2.33712V2.33712ZM75.5064 1.94788C75.0285 1.54607 74.4334 1.30984 73.8105 1.2747C73.2946 1.11985 72.7393 1.16999 72.2605 1.41467C71.7817 1.65935 71.4163 2.07967 71.2407 2.58791C71.1737 2.85864 71.1825 3.14274 71.266 3.4092C71.3495 3.67566 71.5045 3.91422 71.7142 4.09895C72.2404 4.5023 72.8798 4.73009 73.5419 4.74994C75.2534 4.93428 76.1777 4.05405 76.1533 3.13866C76.093 2.67552 75.8624 2.25102 75.5064 1.94788V1.94788Z" fill="#FFBE31"/>
<path opacity="0.2" d="M69.2132 28.9623C70.4789 25.8448 71.0941 9.09366 71.607 2.73605L71.8129 2.28845C71.7442 2.27804 71.6742 2.28142 71.6069 2.29838C71.5397 2.31533 71.4766 2.34553 71.4212 2.3872C71.3658 2.42888 71.3193 2.4812 71.2844 2.5411C71.2496 2.601 71.227 2.66726 71.2181 2.73604L67.4895 28.3203L17.1626 84.8067C17.0706 84.91 17.0235 85.0456 17.0317 85.1838C17.0398 85.3219 17.1025 85.4514 17.206 85.5436L18.1893 86.4197C27.8683 75.9959 67.9319 32.0659 69.2132 28.9623Z" fill="black"/>
</g>
<g opacity="0.7" clip-path="url(#clip1)">
<path opacity="0.1" d="M125.71 139.762C120.39 133.472 112.9 120.902 109.27 115.102C105.64 109.302 97.1799 96.7218 84.6099 94.7918C84.6099 94.7918 73.4899 90.4418 65.2699 97.6918C57.0499 104.942 52.9399 116.792 43.2699 122.592C33.5999 128.392 29.4899 133.232 19.3399 145.592C9.18991 157.952 2.89989 156.232 0.47989 164.932C-1.94011 173.632 5.06991 181.612 13.7799 174.122C22.4899 166.632 23.2099 160.122 29.0099 160.582C34.8099 161.042 37.9499 163.722 42.3099 170.252C44.4735 173.931 47.0685 177.338 50.0399 180.402C51.3799 181.742 52.7499 183.142 53.9899 184.592C52.4496 186.464 51.0524 188.45 49.8099 190.532C47.8699 193.912 45.6999 196.332 40.8599 200.202C36.0199 204.072 29.7399 209.872 36.0299 217.362C42.0299 224.532 49.8299 212.292 56.4099 207.182L57.2899 206.542C57.6899 206.272 58.0399 206.012 58.3499 205.772C60.3499 204.372 62.2799 203.032 64.0499 201.932C72.2699 196.852 84.3599 184.282 88.9599 180.172C93.5599 176.062 113.13 175.092 120.38 162.522C127.63 149.952 130.99 146.042 125.71 139.762ZM22.4899 160.522C19.3499 164.392 8.4899 180.832 4.1199 171.642C-0.250095 162.452 11.3699 158.342 15.7199 152.542C16.8867 150.89 18.4519 149.561 20.2701 148.676C22.0883 147.792 24.1005 147.381 26.1199 147.482C32.8899 149.402 25.6299 156.662 22.4899 160.522ZM53.1899 204.522C49.8099 210.522 39.6499 218.302 37.2399 212.522C34.8299 206.742 43.7599 200.432 47.8699 197.932C51.9799 195.432 54.8699 187.132 54.8699 187.132C57.7899 187.042 58.7299 195.842 58.7299 195.842C56.6608 198.587 54.8086 201.489 53.1899 204.522V204.522Z" fill="white"/>
<path opacity="0.35" d="M125.71 139.762C120.39 133.472 112.9 120.902 109.27 115.102C105.64 109.302 97.1799 96.7218 84.6099 94.7918C84.6099 94.7918 73.4899 90.4418 65.2699 97.6918C57.0499 104.942 52.9399 116.792 43.2699 122.592C33.5999 128.392 29.4899 133.232 19.3399 145.592C9.18991 157.952 2.89989 156.232 0.47989 164.932C-1.94011 173.632 5.06991 181.612 13.7799 174.122C22.4899 166.632 23.2099 160.122 29.0099 160.582C34.8099 161.042 37.9499 163.722 42.3099 170.252C44.4735 173.931 47.0685 177.338 50.0399 180.402C51.3799 181.742 52.7499 183.142 53.9899 184.592C52.4496 186.464 51.0524 188.45 49.8099 190.532C47.8699 193.912 45.6999 196.332 40.8599 200.202C36.0199 204.072 29.7399 209.872 36.0299 217.362C42.0299 224.532 49.8299 212.292 56.4099 207.182L57.2899 206.542C57.6899 206.272 58.0399 206.012 58.3499 205.772C60.3499 204.372 62.2799 203.032 64.0499 201.932C72.2699 196.852 84.3599 184.282 88.9599 180.172C93.5599 176.062 113.13 175.092 120.38 162.522C127.63 149.952 130.99 146.042 125.71 139.762ZM22.4899 160.522C19.3499 164.392 8.4899 180.832 4.1199 171.642C-0.250095 162.452 11.3699 158.342 15.7199 152.542C16.8867 150.89 18.4519 149.561 20.2701 148.676C22.0883 147.792 24.1005 147.381 26.1199 147.482C32.8899 149.402 25.6299 156.662 22.4899 160.522ZM53.1899 204.522C49.8099 210.522 39.6499 218.302 37.2399 212.522C34.8299 206.742 43.7599 200.432 47.8699 197.932C51.9799 195.432 54.8699 187.132 54.8699 187.132C57.7899 187.042 58.7299 195.842 58.7299 195.842C56.6608 198.587 54.8086 201.489 53.1899 204.522V204.522ZM119.79 154.062C115.87 160.632 111.51 167.592 104.48 170.632C98.3799 173.262 90.5799 172.792 86.1699 177.762C84.3099 179.852 83.3599 182.652 81.4299 184.672C80.3617 185.697 79.1769 186.593 77.8999 187.342L61.3499 197.912C61.5313 192.795 60.4698 187.71 58.2563 183.093C56.0427 178.476 52.743 174.465 48.6399 171.402C47.4607 170.672 46.4156 169.745 45.5499 168.662C45.009 167.724 44.6049 166.714 44.3499 165.662C43.2399 162.242 41.5199 158.842 38.5699 156.782C36.3199 155.212 33.0699 153.912 33.0799 151.162C33.0799 149.632 34.2199 148.362 35.2699 147.262L39.2699 143.092C40.7499 141.552 42.2699 139.832 42.4799 137.702C42.6899 135.572 40.5899 133.232 38.6099 134.012C38.6048 132.753 39.0445 131.533 39.8514 130.567C40.6583 129.601 41.7804 128.951 43.0199 128.732C45.0199 128.452 46.9699 129.312 48.9399 129.082C51.6599 128.772 53.7199 126.512 55.2499 124.232C56.7799 121.952 58.1699 119.422 60.5199 118.012C61.8835 117.326 63.2897 116.728 64.7299 116.222C67.1111 115.124 69.1208 113.356 70.5132 111.134C71.9055 108.913 72.6202 106.333 72.5699 103.712L69.1899 102.162C69.6199 98.5518 73.9399 96.4818 77.5299 97.1118C84.7899 98.9318 91.1999 106.162 96.8699 110.742C98.6199 112.152 100.51 113.632 102.75 113.842C103.436 113.822 104.119 113.952 104.75 114.222C105.308 114.635 105.724 115.211 105.94 115.872C109.582 123.943 114.196 131.539 119.68 138.492C121 139.944 122.019 141.644 122.68 143.492C123.7 147.162 121.71 150.852 119.79 154.062V154.062Z" fill="white"/>
<path opacity="0.2" d="M87.7599 110.962C87.7599 110.962 101.3 120.392 106.38 133.442C111.46 146.492 121.6 152.212 101.55 165.352C101.55 165.352 105.66 140.452 95.2599 131.992C84.8599 123.532 87.7599 110.962 87.7599 110.962Z" fill="white"/>
<path opacity="0.4" d="M65.7801 182.862C63.2101 177.142 65.5001 176.572 64.7301 167.862C64.3901 163.962 63.0901 155.932 63.0901 155.932C63.0901 155.932 66.2301 163.322 65.9401 170.342C65.6501 177.362 64.7801 180.082 65.7801 182.862Z" fill="white"/>
<path opacity="0.2" d="M62.6699 188.582C62.828 184.106 61.9413 179.655 60.0799 175.582C58.6544 172.034 57.6021 168.347 56.9399 164.582C56.9399 164.582 57.1799 172.912 59.8199 178.512C61.3692 181.669 62.3348 185.081 62.6699 188.582V188.582Z" fill="white"/>
<path opacity="0.2" d="M75.27 167.242C75.27 167.242 74.67 179.052 69.02 186.592C71.7879 184.29 73.8449 181.249 74.9514 177.823C76.058 174.397 76.1684 170.728 75.27 167.242V167.242Z" fill="white"/>
<path opacity="0.2" d="M53.34 135.872C53.34 135.872 49.62 144.292 43.51 148.582C37.4 152.872 35.77 152.582 35.77 152.582C35.77 152.582 49.56 151.262 53.34 135.872Z" fill="white"/>
<path opacity="0.2" d="M45.9901 136.972C45.9901 136.972 41.7601 146.912 34.5801 150.622C37.4616 149.466 40.0118 147.615 42.0029 145.233C43.994 142.851 45.3639 140.012 45.9901 136.972V136.972Z" fill="white"/>
</g>
<defs>
<clipPath id="clip0">
<rect width="19.4613" height="101.199" fill="white" transform="translate(73.3198) rotate(41.6996)"/>
</clipPath>
<clipPath id="clip1">
<rect width="128.31" height="126.03" fill="white" transform="translate(0 93.4917)"/>
</clipPath>
</defs>
</svg>
