<svg width="124" height="120" viewBox="0 0 124 120" fill="none" xmlns="http://www.w3.org/2000/svg">
<g opacity="0.7">
<path fill-rule="evenodd" clip-rule="evenodd" d="M106.554 34.1364C106.554 34.1364 93.3117 42.5927 90.0394 43.8609C86.767 45.129 50.269 20.6641 45.297 23.0806C40.325 25.4972 6.82073 69.8926 6.82073 69.8926C20.8936 84.3784 36.4773 97.315 53.3053 108.481L115.741 42.7765L106.554 34.1364ZM37.027 45.627C37.027 45.627 45.9018 32.5331 50.2477 31.756C54.5937 30.9788 80.5211 49.0661 80.5211 49.0661C80.5211 49.0661 56.6734 53.9391 37.027 45.627Z" fill="#AEE3E6"/>
<path fill-rule="evenodd" clip-rule="evenodd" d="M99.3108 36.7344L108.1 28.8362L121.119 41.6692L112.62 50.0012L99.3108 36.7344Z" fill="#003153"/>
<path opacity="0.2" fill-rule="evenodd" clip-rule="evenodd" d="M37.0272 45.627L31.5525 48.2675C31.5525 48.2675 65.5564 58.0961 86.668 54.6254L80.4981 49.0538C65.9699 51.9699 50.9176 50.7833 37.0272 45.627Z" fill="black"/>
<path opacity="0.2" fill-rule="evenodd" clip-rule="evenodd" d="M16.8681 56.7643C16.8681 56.7643 12.5895 67.1996 14.8717 71.8057C17.154 76.4118 48.2628 97.4778 57.3084 96.095C66.3541 94.7121 106.951 50.1415 106.951 50.1415L99.0867 38.763L100.228 37.4097L110.416 48.3383L53.2822 108.469C53.2822 108.469 26.2341 90.7395 6.7976 69.8804L16.8681 56.7643Z" fill="black"/>
</g>
</svg>
