<svg width="270" height="224" viewBox="0 0 270 224" fill="none" xmlns="http://www.w3.org/2000/svg">
<g style="mix-blend-mode:multiply" opacity="0.1">
<path d="M230.836 23.9096C219.883 29.8588 212.418 40.5691 202.628 48.2788C200.547 49.0072 198.318 49.2134 196.139 48.8792C193.959 48.545 191.896 47.6806 190.129 46.3622C189.209 45.573 188.289 44.7578 187.386 43.934C180.13 36.1289 175.478 27.4046 176.458 18.5935C177.439 9.78242 152.598 3.57303 119.598 0.962658C86.598 -1.64771 48.3641 -0.346883 39.8667 23.1638C31.3693 46.6744 104.565 38.5051 114.694 37.8547C122.749 37.3343 136.063 36.285 136.463 40.1875C135.838 41.6947 134.957 43.0826 133.859 44.2896C133.718 44.415 133.59 44.5545 133.477 44.7058C132.506 45.7313 131.406 46.6263 130.205 47.3682C125.656 50.1694 120.24 51.0713 115.093 52.4676C85.5824 60.4548 62.3296 87.5904 58.6755 117.874C47.1836 117.267 14.1402 117.137 2.88269 134.82C-9.67677 154.541 41.8109 160.316 67.9106 150.638V150.708C67.9106 150.708 74.4551 149.025 71.4953 153.968C68.6831 158.66 46.6628 189.872 48.6158 191.511C50.5687 193.15 81.5291 160.117 87.1795 161.158C89.6098 161.6 88.2991 166.309 87.8738 167.645C87.8738 167.757 87.7957 167.879 87.761 168C82.5532 183.897 72.2331 224.171 102.516 222.991C127.583 222.011 124.111 192.89 118.956 173.438C153.839 179.656 192.021 163.733 211.576 134.065C217.548 144.698 214.18 158.062 209.346 169.266C204.511 180.471 198.297 191.814 198.93 203.956C198.935 205.684 199.357 207.386 200.163 208.916C201.959 211.925 205.935 212.94 209.424 212.567C216.081 211.865 221.575 207.364 226.714 202.976C238.475 192.924 250.878 181.755 254.176 166.639C257.318 152.243 251.442 137.569 245.696 123.997C244.507 121.204 243.274 118.325 241.07 116.244C238.405 113.712 234.699 112.671 231.444 110.945C221.367 105.585 216.177 92.4903 219.865 81.6932C238.836 77.3095 255.523 66.0922 266.736 50.1867C280.675 30.4399 245.184 16.1306 230.836 23.9096Z" fill="#022B49"/>
</g>
</svg>
