<svg width="1440" height="459" viewBox="0 0 1440 459" fill="none" xmlns="http://www.w3.org/2000/svg">
<path d="M125.5 394C59.7167 399.021 23.8989 412.84 -42 416C-80.2274 417.833 -140 416 -140 416V464H1580V-2C1394.4 -2.00006 1197.16 55.4397 1033.81 147.839C870.456 240.238 597 390.5 459 404.5C321 418.5 255.427 384.084 125.5 394Z" fill="#03406D" stroke="#03406D" stroke-width="4"/>
<path fill-rule="evenodd" clip-rule="evenodd" d="M109.759 386.175C123.235 386.884 137.581 387.638 154 388C181.809 388.612 201.341 384.324 219.568 380.323C255.415 372.452 286.212 365.691 365 399.5C483.847 450.5 854.272 249.998 1017.62 157.5C1020.76 156.258 1023.87 155.022 1026.97 153.792C1196.05 86.6987 1318.77 38 1580 38V464H-140V428.5C-140 428.5 -49.8824 395.648 10.5 388C49.803 383.022 77.2522 384.466 109.759 386.175ZM1214.98 100.164C1213.5 100.588 1212.64 102.049 1212.91 103.56L1213.26 105.496C1213.58 107.247 1215.34 108.342 1217.05 107.852C1231.73 103.645 1293.87 86.1096 1336.4 78.3855C1378.93 70.6614 1443.27 65.2255 1458.49 64.0025C1460.27 63.86 1461.53 62.2176 1461.21 60.4662L1460.86 58.5305C1460.58 57.0188 1459.26 55.956 1457.73 56.0783C1443.81 57.189 1378.15 62.6724 1334.97 70.5143C1291.79 78.3562 1228.4 96.3114 1214.98 100.164Z" fill="#022B49"/>
<path d="M154 388L154.044 386L154.044 386L154 388ZM109.759 386.175L109.865 384.178L109.865 384.178L109.759 386.175ZM219.568 380.323L219.997 382.276L219.997 382.276L219.568 380.323ZM365 399.5L365.789 397.662L365.789 397.662L365 399.5ZM1017.62 157.5L1016.89 155.641L1016.76 155.692L1016.64 155.76L1017.62 157.5ZM1026.97 153.792L1027.71 155.651L1027.71 155.651L1026.97 153.792ZM1580 38H1582V36H1580V38ZM1580 464V466H1582V464H1580ZM-140 464H-142V466H-140V464ZM-140 428.5L-140.685 426.621L-142 427.1V428.5H-140ZM10.5 388L10.7513 389.984L10.7513 389.984L10.5 388ZM1212.91 103.56L1214.88 103.203L1214.88 103.203L1212.91 103.56ZM1214.98 100.164L1215.53 102.086L1215.53 102.086L1214.98 100.164ZM1213.26 105.496L1215.23 105.139L1215.23 105.139L1213.26 105.496ZM1217.05 107.852L1216.5 105.929L1216.5 105.929L1217.05 107.852ZM1458.49 64.0025L1458.33 62.009L1458.33 62.009L1458.49 64.0025ZM1461.21 60.4662L1463.18 60.1089L1463.18 60.1089L1461.21 60.4662ZM1460.86 58.5305L1462.82 58.1731L1462.82 58.1731L1460.86 58.5305ZM1457.73 56.0783L1457.89 58.0719L1457.89 58.0719L1457.73 56.0783ZM1334.97 70.5143L1334.61 68.5465L1334.61 68.5465L1334.97 70.5143ZM154.044 386C137.659 385.64 123.342 384.887 109.865 384.178L109.654 388.173C123.129 388.881 137.502 389.637 153.956 390L154.044 386ZM219.139 378.369C200.936 382.366 181.6 386.607 154.044 386L153.956 390C182.018 390.618 201.747 386.283 219.997 382.276L219.139 378.369ZM365.789 397.662C326.272 380.705 298.649 373.859 276.322 372.286C253.977 370.712 237.063 374.434 219.139 378.369L219.997 382.276C237.919 378.341 254.328 374.747 276.041 376.276C297.771 377.807 324.94 384.486 364.211 401.338L365.789 397.662ZM1016.64 155.76C934.975 202.002 801.607 275.208 673.829 330.476C609.935 358.113 547.503 381.235 493.669 394.267C439.712 407.329 394.85 410.133 365.789 397.662L364.211 401.338C394.573 414.367 440.583 411.233 494.61 398.155C548.762 385.046 611.43 361.824 675.417 334.148C803.401 278.79 936.921 205.497 1018.61 159.24L1016.64 155.76ZM1026.23 151.933C1023.13 153.163 1020.02 154.399 1016.89 155.641L1018.36 159.359C1021.49 158.117 1024.61 156.881 1027.71 155.651L1026.23 151.933ZM1580 36C1318.4 36 1195.4 84.803 1026.23 151.933L1027.71 155.651C1196.69 88.5944 1319.14 40 1580 40V36ZM1582 464V38H1578V464H1582ZM-140 466H1580V462H-140V466ZM-142 428.5V464H-138V428.5H-142ZM10.2487 386.016C-20.1199 389.862 -57.88 400.03 -87.9766 409.205C-103.04 413.797 -116.213 418.149 -125.621 421.354C-130.325 422.957 -134.088 424.272 -136.677 425.188C-137.971 425.646 -138.972 426.003 -139.65 426.247C-139.988 426.369 -140.247 426.462 -140.42 426.525C-140.507 426.556 -140.573 426.58 -140.617 426.596C-140.639 426.604 -140.656 426.61 -140.668 426.615C-140.673 426.617 -140.677 426.618 -140.68 426.619C-140.682 426.62 -140.683 426.62 -140.684 426.62C-140.685 426.621 -140.685 426.621 -140 428.5C-139.315 430.379 -139.315 430.379 -139.314 430.379C-139.314 430.379 -139.313 430.378 -139.311 430.378C-139.309 430.377 -139.305 430.375 -139.3 430.373C-139.289 430.37 -139.273 430.364 -139.252 430.356C-139.209 430.34 -139.144 430.317 -139.059 430.286C-138.888 430.224 -138.633 430.132 -138.297 430.011C-137.625 429.77 -136.631 429.414 -135.343 428.959C-132.767 428.048 -129.019 426.737 -124.331 425.14C-114.954 421.946 -101.824 417.608 -86.8102 413.031C-56.7525 403.868 -19.2625 393.785 10.7513 389.984L10.2487 386.016ZM109.865 384.178C77.3454 382.468 49.7425 381.014 10.2487 386.016L10.7513 389.984C49.8634 385.03 77.159 386.464 109.654 388.173L109.865 384.178ZM1214.88 103.203C1214.78 102.658 1215.09 102.215 1215.53 102.086L1214.43 98.2416C1211.92 98.9614 1210.49 101.439 1210.94 103.918L1214.88 103.203ZM1215.23 105.139L1214.88 103.203L1210.94 103.918L1211.3 105.853L1215.23 105.139ZM1216.5 105.929C1215.93 106.093 1215.34 105.73 1215.23 105.139L1211.3 105.853C1211.82 108.764 1214.75 110.592 1217.6 109.775L1216.5 105.929ZM1336.04 76.4177C1293.4 84.1623 1231.16 101.727 1216.5 105.929L1217.6 109.775C1232.29 105.564 1294.34 88.0569 1336.76 80.3533L1336.04 76.4177ZM1458.33 62.009C1443.13 63.2309 1378.69 68.6731 1336.04 76.4177L1336.76 80.3533C1379.18 72.6498 1443.42 67.2202 1458.65 65.9961L1458.33 62.009ZM1459.24 60.8235C1459.35 61.4155 1458.92 61.9615 1458.33 62.009L1458.65 65.9961C1461.61 65.7584 1463.7 63.0196 1463.18 60.1089L1459.24 60.8235ZM1458.89 58.8878L1459.24 60.8236L1463.18 60.1089L1462.82 58.1731L1458.89 58.8878ZM1457.89 58.0719C1458.35 58.0349 1458.79 58.3431 1458.89 58.8878L1462.82 58.1731C1462.37 55.6945 1460.17 53.8771 1457.57 54.0846L1457.89 58.0719ZM1335.33 72.4821C1378.39 64.6609 1443.96 59.1838 1457.89 58.0719L1457.57 54.0846C1443.67 55.1942 1377.91 60.6839 1334.61 68.5465L1335.33 72.4821ZM1215.53 102.086C1228.96 98.2298 1292.26 80.3033 1335.33 72.4821L1334.61 68.5465C1291.32 76.409 1227.83 94.393 1214.43 98.2416L1215.53 102.086Z" fill="#022B49"/>
</svg>
