<svg width="1440" height="450" viewBox="0 0 1440 450" fill="none" xmlns="http://www.w3.org/2000/svg">
<path d="M158.342 30.6657C103.914 5.07569 22.7776 1.01062 -10.9874 2.17683H-140V456H1580V42.162C1477.7 31.6661 1220.68 31.1663 1035.73 146.121C850.776 261.076 691.527 332.548 554.451 257.578C417.375 182.607 212.769 56.2556 158.342 30.6657Z" fill="#006EBC" stroke="#006EBC" stroke-width="4"/>
<path fill-rule="evenodd" clip-rule="evenodd" d="M156.777 62.6477C102.635 37.0738 21.9239 33.0112 -11.664 34.1767H-140V524H1579V111.421C1579 111.421 720.252 394.133 550.808 289.417C381.365 184.702 210.919 88.2216 156.777 62.6477ZM-12.7453 50.1694C-12.8845 47.2848 -10.6083 44.8642 -7.72035 44.8605C2.06638 44.8478 23.3914 45.0433 38.3942 46.7954C54.2234 48.644 76.9797 53.8565 85.6373 55.9142C87.7403 56.414 89.2332 58.2438 89.3374 60.4029C89.4954 63.6761 86.4515 66.187 83.26 65.4432C73.16 63.0896 53.1939 58.6706 38.8867 56.9997C23.6983 55.2259 2.03043 55.0476 -7.58563 55.0654C-10.3371 55.0705 -12.6127 52.9176 -12.7453 50.1694ZM13.1299 64.4892C10.2838 64.219 7.75752 66.3072 7.48732 69.1533C7.21713 71.9995 9.30531 74.5257 12.1514 74.7959L41.8689 77.6172C44.715 77.8874 47.2413 75.7992 47.5115 72.9531C47.7817 70.107 45.6935 67.5807 42.8474 67.3105L13.1299 64.4892ZM46.3195 98.3021C47.0492 95.3738 50.0145 93.5915 52.9427 94.3211L85.6636 102.474C88.5919 103.203 90.3743 106.169 89.6447 109.097C88.9151 112.025 85.9498 113.808 83.0215 113.078L50.3006 104.925C47.3723 104.196 45.5899 101.23 46.3195 98.3021ZM100.607 85.3744C97.9245 84.6153 95.1346 86.1745 94.3756 88.8568C93.6165 91.5392 95.1756 94.329 97.858 95.0881L135.152 105.642C137.835 106.401 140.625 104.842 141.384 102.16C142.143 99.4771 140.584 96.6873 137.901 95.9282L100.607 85.3744Z" fill="#0058A5"/>
<path d="M-11.664 34.1767V36.1767H-11.6294L-11.5947 36.1755L-11.664 34.1767ZM156.777 62.6477L157.631 60.8393L156.777 62.6477ZM-140 34.1767V32.1767H-142V34.1767H-140ZM-140 524H-142V526H-140V524ZM1579 524V526H1581V524H1579ZM1579 111.421H1581V108.657L1578.37 109.521L1579 111.421ZM550.808 289.417L549.757 291.118L549.757 291.118L550.808 289.417ZM-7.72035 44.8605L-7.72294 42.8605L-7.72294 42.8605L-7.72035 44.8605ZM-12.7453 50.1694L-14.743 50.2658L-14.743 50.2658L-12.7453 50.1694ZM38.3942 46.7954L38.6262 44.8089L38.6262 44.8089L38.3942 46.7954ZM85.6373 55.9142L86.0997 53.9684L86.0997 53.9684L85.6373 55.9142ZM89.3374 60.4029L91.3351 60.3065L91.3351 60.3065L89.3374 60.4029ZM83.26 65.4432L82.8061 67.391L82.8061 67.391L83.26 65.4432ZM38.8867 56.9997L39.1187 55.0132L39.1187 55.0132L38.8867 56.9997ZM-7.58563 55.0654L-7.58193 57.0654L-7.58193 57.0654L-7.58563 55.0654ZM7.48732 69.1533L5.49627 68.9643L5.49627 68.9643L7.48732 69.1533ZM13.1299 64.4892L12.9409 66.4803L12.9409 66.4803L13.1299 64.4892ZM12.1514 74.7959L12.3405 72.8049L12.3405 72.8049L12.1514 74.7959ZM41.8689 77.6172L42.0579 75.6261L42.0579 75.6261L41.8689 77.6172ZM42.8474 67.3105L42.6583 69.3015L42.6583 69.3015L42.8474 67.3105ZM52.9427 94.3211L52.4592 96.2617L52.4592 96.2617L52.9427 94.3211ZM85.6636 102.474L86.1472 100.533L86.1472 100.533L85.6636 102.474ZM89.6447 109.097L91.5853 109.581L91.5853 109.581L89.6447 109.097ZM83.0215 113.078L83.505 111.137L83.505 111.137L83.0215 113.078ZM50.3006 104.925L50.7841 102.985L50.7841 102.985L50.3006 104.925ZM94.3756 88.8568L96.3 89.4014L96.3 89.4014L94.3756 88.8568ZM100.607 85.3744L100.062 87.2989L100.062 87.2989L100.607 85.3744ZM97.858 95.0881L97.3134 97.0125L97.3134 97.0125L97.858 95.0881ZM135.152 105.642L135.697 103.717L135.697 103.717L135.152 105.642ZM137.901 95.9282L137.357 97.8527L137.357 97.8527L137.901 95.9282ZM-11.5947 36.1755C5.0914 35.5965 33.5564 36.3159 64.5898 40.3681C95.6436 44.423 129.123 51.797 155.923 64.4561L157.631 60.8393C130.289 47.9244 96.3419 40.4802 65.1077 36.4018C33.8531 32.3206 5.16842 31.5914 -11.7334 32.1779L-11.5947 36.1755ZM-140 36.1767H-11.664V32.1767H-140V36.1767ZM-138 524V34.1767H-142V524H-138ZM1579 522H-140V526H1579V522ZM1577 111.421V524H1581V111.421H1577ZM549.757 291.118C571.367 304.474 603.725 311.533 643.522 313.83C683.376 316.131 730.944 313.665 783.172 307.769C887.631 295.977 1010.95 270.432 1128.92 241.63C1246.9 212.825 1359.57 180.749 1442.75 155.875C1484.33 143.437 1518.55 132.8 1542.37 125.271C1554.28 121.507 1563.59 118.52 1569.93 116.474C1573.1 115.45 1575.52 114.662 1577.15 114.13C1577.97 113.864 1578.59 113.662 1579 113.526C1579.21 113.458 1579.36 113.407 1579.47 113.373C1579.52 113.355 1579.56 113.342 1579.59 113.334C1579.6 113.329 1579.61 113.326 1579.62 113.324C1579.62 113.322 1579.63 113.321 1579 111.421C1578.37 109.521 1578.37 109.522 1578.36 109.524C1578.36 109.527 1578.35 109.53 1578.34 109.534C1578.31 109.543 1578.27 109.555 1578.22 109.572C1578.12 109.606 1577.96 109.657 1577.75 109.725C1577.34 109.86 1576.73 110.062 1575.91 110.327C1574.28 110.859 1571.86 111.645 1568.7 112.667C1562.37 114.711 1553.07 117.696 1541.17 121.457C1517.36 128.98 1483.17 139.612 1441.6 152.042C1358.46 176.904 1245.86 208.961 1127.97 237.744C1010.07 266.531 886.935 292.03 782.723 303.795C730.615 309.677 683.294 312.119 643.753 309.837C604.155 307.551 572.61 300.539 551.86 287.716L549.757 291.118ZM155.923 64.4561C209.953 89.9774 380.315 186.404 549.757 291.118L551.86 287.716C382.414 182.999 211.884 86.4658 157.631 60.8393L155.923 64.4561ZM-7.72294 42.8605C-11.7666 42.8657 -14.9365 46.2555 -14.743 50.2658L-10.7476 50.0729C-10.8325 48.314 -9.44997 46.8627 -7.71777 46.8605L-7.72294 42.8605ZM38.6262 44.8089C23.4919 43.0414 2.05776 42.8479 -7.72294 42.8605L-7.71777 46.8605C2.07499 46.8478 23.2909 47.0451 38.1622 48.7819L38.6262 44.8089ZM86.0997 53.9684C77.4531 51.9133 54.5883 46.6731 38.6262 44.8089L38.1622 48.7819C53.8585 50.615 76.5063 55.7997 85.1748 57.86L86.0997 53.9684ZM91.3351 60.3065C91.1887 57.2742 89.0851 54.6779 86.0997 53.9684L85.1748 57.86C86.3956 58.1501 87.2776 59.2133 87.3397 60.4993L91.3351 60.3065ZM82.8061 67.391C87.2755 68.4326 91.5578 64.9215 91.3351 60.3065L87.3397 60.4993C87.4329 62.4306 85.6275 63.9413 83.7139 63.4954L82.8061 67.391ZM38.6547 58.9862C52.836 60.6424 72.7009 65.0362 82.8061 67.391L83.7139 63.4954C73.6191 61.1429 53.5517 56.6988 39.1187 55.0132L38.6547 58.9862ZM-7.58193 57.0654C2.04089 57.0476 23.5987 57.2279 38.6547 58.9862L39.1187 55.0132C23.798 53.224 2.01997 53.0476 -7.58934 53.0654L-7.58193 57.0654ZM-14.743 50.2658C-14.5585 54.0873 -11.3959 57.0725 -7.58193 57.0654L-7.58934 53.0654C-9.27828 53.0685 -10.6668 51.748 -10.7476 50.0729L-14.743 50.2658ZM9.47837 69.3424C9.64417 67.5959 11.1944 66.3145 12.9409 66.4803L13.3189 62.4982C9.37319 62.1236 5.87087 65.0186 5.49627 68.9643L9.47837 69.3424ZM12.3405 72.8049C10.594 72.6391 9.31257 71.0889 9.47837 69.3424L5.49627 68.9643C5.1217 72.9101 8.01666 76.4124 11.9624 76.787L12.3405 72.8049ZM42.0579 75.6261L12.3405 72.8049L11.9624 76.787L41.6799 79.6082L42.0579 75.6261ZM45.5204 72.7641C45.3546 74.5105 43.8044 75.7919 42.0579 75.6261L41.6799 79.6082C45.6256 79.9828 49.1279 77.0878 49.5025 73.1421L45.5204 72.7641ZM42.6583 69.3015C44.4048 69.4673 45.6862 71.0176 45.5204 72.7641L49.5025 73.1421C49.8771 69.1964 46.9821 65.694 43.0364 65.3194L42.6583 69.3015ZM12.9409 66.4803L42.6583 69.3015L43.0364 65.3194L13.3189 62.4982L12.9409 66.4803ZM53.4263 92.3804C49.4262 91.3837 45.3755 93.8185 44.3789 97.8186L48.2602 98.7856C48.7228 96.9292 50.6027 95.7992 52.4592 96.2617L53.4263 92.3804ZM86.1472 100.533L53.4263 92.3804L52.4592 96.2617L85.1801 104.415L86.1472 100.533ZM91.5853 109.581C92.582 105.58 90.1472 101.53 86.1472 100.533L85.1801 104.415C87.0366 104.877 88.1666 106.757 87.704 108.614L91.5853 109.581ZM82.5379 115.019C86.538 116.015 90.5887 113.581 91.5853 109.581L87.704 108.613C87.2414 110.47 85.3615 111.6 83.505 111.137L82.5379 115.019ZM49.817 106.866L82.5379 115.019L83.505 111.137L50.7841 102.985L49.817 106.866ZM44.3789 97.8186C43.3822 101.819 45.817 105.869 49.817 106.866L50.7841 102.985C48.9276 102.522 47.7977 100.642 48.2602 98.7856L44.3789 97.8186ZM96.3 89.4014C96.7583 87.7819 98.4427 86.8405 100.062 87.2989L101.151 83.45C97.4062 82.3902 93.511 84.5671 92.4512 88.3123L96.3 89.4014ZM98.4026 93.1637C96.7831 92.7054 95.8417 91.021 96.3 89.4014L92.4512 88.3122C91.3913 92.0574 93.5682 95.9527 97.3134 97.0125L98.4026 93.1637ZM135.697 103.717L98.4026 93.1637L97.3134 97.0125L134.608 107.566L135.697 103.717ZM139.459 101.615C139.001 103.234 137.316 104.176 135.697 103.717L134.608 107.566C138.353 108.626 142.248 106.449 143.308 102.704L139.459 101.615ZM137.357 97.8527C138.976 98.311 139.917 99.9954 139.459 101.615L143.308 102.704C144.368 98.9589 142.191 95.0636 138.446 94.0038L137.357 97.8527ZM100.062 87.2989L137.357 97.8527L138.446 94.0038L101.151 83.45L100.062 87.2989Z" fill="#0058A5"/>
</svg>
