<svg width="1440" height="263" viewBox="0 0 1440 263" fill="none" xmlns="http://www.w3.org/2000/svg">
<path d="M987.005 255.411C727.522 255.411 189.747 2 -140 2V310H1579V87.639C1215.5 235.379 1157.96 255.411 987.005 255.411Z" fill="#00D4E5" stroke="#00D4E5" stroke-width="4"/>
<path fill-rule="evenodd" clip-rule="evenodd" d="M993.09 256.5C899.629 256.5 769.256 221.36 615.943 180.037C397.15 121.065 131.635 49.5 -140 49.5V685H1579V145.5C1368.21 215.942 1251.47 241 1166.82 238.5C1096.55 250.5 1052.08 256.5 993.09 256.5ZM-84.759 73.36C-84.5615 71.2591 -82.8019 69.6462 -80.6899 69.6831C-65.6932 69.9454 -8.61984 71.0992 29.7024 74.0301C68.3227 76.9839 125.245 84.5989 140.143 86.6336C142.232 86.9189 143.666 88.7769 143.469 90.878C143.253 93.1721 141.179 94.8482 138.898 94.5372C123.272 92.4066 67.1575 84.9233 28.9533 82.0014C-8.95229 79.1023 -65.2034 77.942 -80.935 77.6633C-83.2413 77.6225 -84.9746 75.6542 -84.759 73.36ZM-46.6738 90.1738C-48.8812 90.0724 -50.7713 91.7788 -50.8954 93.9851C-51.0195 96.1914 -49.3306 98.0621 -47.1231 98.1635L-10.9127 99.8267C-8.70526 99.9281 -6.81519 98.2217 -6.6911 96.0154C-6.56702 93.8092 -8.25594 91.9384 -10.4634 91.837L-46.6738 90.1738ZM51.3976 99.2614C51.6743 97.0665 53.6826 95.4708 55.8833 95.6974L97.1553 99.947C99.356 100.174 100.916 102.137 100.639 104.332C100.362 106.527 98.3539 108.122 96.1532 107.896L54.8812 103.646C52.6805 103.419 51.1208 101.456 51.3976 99.2614ZM1402.88 210.638C1400.58 211.126 1399.29 213.412 1400.05 215.623C1400.74 217.619 1402.87 218.836 1404.94 218.396C1415.75 216.105 1448.13 209.111 1469.86 202.981C1491.98 196.741 1523.57 185.614 1534.01 181.89C1535.99 181.182 1536.97 179.089 1536.28 177.091C1535.51 174.881 1533 173.671 1530.81 174.453C1519.85 178.36 1488.96 189.213 1467.21 195.346C1445.86 201.37 1414.23 208.229 1402.88 210.638Z" fill="#00AACD"/>
<path d="M615.943 180.037L615.422 181.968L615.422 181.968L615.943 180.037ZM-140 49.5V47.5H-142V49.5H-140ZM-140 685H-142V687H-140V685ZM1579 685V687H1581V685H1579ZM1579 145.5H1581V142.723L1578.37 143.603L1579 145.5ZM1166.82 238.5L1166.88 236.501L1166.68 236.495L1166.48 236.529L1166.82 238.5ZM-80.6899 69.6831L-80.7249 71.6828L-80.7249 71.6828L-80.6899 69.6831ZM-84.759 73.36L-86.7502 73.1729L-86.7502 73.1729L-84.759 73.36ZM29.7024 74.0301L29.5499 76.0243L29.7024 74.0301ZM140.143 86.6336L140.414 84.652L140.414 84.652L140.143 86.6336ZM143.469 90.878L141.477 90.6909L141.477 90.6909L143.469 90.878ZM138.898 94.5372L139.168 92.5555L139.168 92.5555L138.898 94.5372ZM28.9533 82.0014L28.8008 83.9956L28.8008 83.9956L28.9533 82.0014ZM-80.935 77.6633L-80.9704 79.663L-80.9704 79.663L-80.935 77.6633ZM-50.8954 93.9851L-52.8922 93.8728L-52.8922 93.8728L-50.8954 93.9851ZM-46.6738 90.1738L-46.582 88.1759L-46.582 88.1759L-46.6738 90.1738ZM-47.1231 98.1635L-47.0314 96.1656L-47.0314 96.1656L-47.1231 98.1635ZM-10.9127 99.8267L-11.0045 101.825L-11.0045 101.825L-10.9127 99.8267ZM-6.6911 96.0154L-4.69426 96.1278L-4.69426 96.1278L-6.6911 96.0154ZM-10.4634 91.837L-10.3716 89.8391L-10.3716 89.8391L-10.4634 91.837ZM55.8833 95.6974L56.0881 93.7079L56.0881 93.7079L55.8833 95.6974ZM51.3976 99.2614L53.3818 99.5116L53.3818 99.5116L51.3976 99.2614ZM97.1553 99.947L97.3602 97.9576L97.3602 97.9576L97.1553 99.947ZM100.639 104.332L102.623 104.582L102.623 104.582L100.639 104.332ZM96.1532 107.896L95.9483 109.885L95.9483 109.885L96.1532 107.896ZM54.8812 103.646L55.086 101.656L55.086 101.656L54.8812 103.646ZM1400.05 215.623L1398.16 216.277L1398.16 216.277L1400.05 215.623ZM1402.88 210.638L1402.46 208.682L1402.46 208.682L1402.88 210.638ZM1404.94 218.396L1404.53 216.44L1404.53 216.44L1404.94 218.396ZM1469.86 202.981L1470.4 204.906L1470.4 204.906L1469.86 202.981ZM1534.01 181.89L1533.34 180.006L1533.34 180.006L1534.01 181.89ZM1536.28 177.091L1538.17 176.437L1538.17 176.437L1536.28 177.091ZM1530.81 174.453L1531.48 176.337L1531.48 176.337L1530.81 174.453ZM1467.21 195.346L1467.76 197.271L1467.76 197.271L1467.21 195.346ZM615.422 181.968C768.615 223.259 899.298 258.5 993.09 258.5V254.5C899.96 254.5 769.898 219.462 616.463 178.106L615.422 181.968ZM-140 51.5C131.33 51.5 396.594 122.987 615.422 181.968L616.463 178.106C397.706 119.144 131.941 47.5 -140 47.5V51.5ZM-138 685V49.5H-142V685H-138ZM1579 683H-140V687H1579V683ZM1577 145.5V685H1581V145.5H1577ZM1166.76 240.499C1251.8 243.011 1368.85 217.838 1579.63 147.397L1578.37 143.603C1367.57 214.046 1251.13 238.989 1166.88 236.501L1166.76 240.499ZM993.09 258.5C1052.25 258.5 1096.85 252.478 1167.15 240.471L1166.48 236.529C1096.25 248.522 1051.91 254.5 993.09 254.5V258.5ZM-80.6549 67.6834C-83.8382 67.6278 -86.4574 70.057 -86.7502 73.1729L-82.7677 73.5471C-82.6657 72.4611 -81.7656 71.6646 -80.7249 71.6828L-80.6549 67.6834ZM29.8549 72.0359C-8.53493 69.0998 -65.6655 67.9456 -80.6549 67.6834L-80.7249 71.6828C-65.7209 71.9452 -8.70475 73.0985 29.5499 76.0243L29.8549 72.0359ZM140.414 84.652C125.523 82.6182 68.5434 74.9949 29.8549 72.0359L29.5499 76.0243C68.1019 78.9728 124.967 86.5795 139.873 88.6152L140.414 84.652ZM145.46 91.0652C145.755 87.9277 143.595 85.0865 140.414 84.652L139.873 88.6152C140.869 88.7513 141.577 89.6262 141.477 90.6909L145.46 91.0652ZM138.628 96.5189C142.058 96.9865 145.14 94.4695 145.46 91.0652L141.477 90.6909C141.366 91.8747 140.3 92.7099 139.168 92.5555L138.628 96.5189ZM28.8008 83.9956C66.9371 86.9123 122.995 94.3874 138.628 96.5189L139.168 92.5555C123.549 90.4259 67.3778 82.9344 29.1058 80.0072L28.8008 83.9956ZM-80.9704 79.663C-65.2318 79.9418 -9.03757 81.1016 28.8008 83.9956L29.1058 80.0072C-8.867 77.103 -65.1749 75.9422 -80.8996 75.6636L-80.9704 79.663ZM-86.7502 73.1729C-87.0731 76.6084 -84.4589 79.6012 -80.9704 79.663L-80.8996 75.6636C-82.0236 75.6437 -82.8761 74.7001 -82.7677 73.5471L-86.7502 73.1729ZM-48.8986 94.0974C-48.836 92.9859 -47.8776 92.1206 -46.7656 92.1717L-46.582 88.1759C-49.8849 88.0242 -52.7066 90.5717 -52.8922 93.8728L-48.8986 94.0974ZM-47.0314 96.1656C-48.1274 96.1153 -48.9602 95.1928 -48.8986 94.0974L-52.8922 93.8728C-53.0788 97.1899 -50.5338 100.009 -47.2149 100.161L-47.0314 96.1656ZM-10.821 97.8288L-47.0314 96.1656L-47.2149 100.161L-11.0045 101.825L-10.821 97.8288ZM-8.68795 95.9031C-8.75046 97.0146 -9.70889 97.8799 -10.821 97.8288L-11.0045 101.825C-7.70164 101.976 -4.87991 99.4289 -4.69426 96.1278L-8.68795 95.9031ZM-10.5551 93.8349C-9.45913 93.8853 -8.62634 94.8077 -8.68795 95.9031L-4.69426 96.1278C-4.5077 92.8106 -7.05274 89.9916 -10.3716 89.8391L-10.5551 93.8349ZM-46.7656 92.1717L-10.5551 93.8349L-10.3716 89.8391L-46.582 88.1759L-46.7656 92.1717ZM56.0881 93.7079C52.8064 93.37 49.8259 95.738 49.4133 99.0112L53.3818 99.5116C53.5226 98.3949 54.5588 97.5716 55.6784 97.6869L56.0881 93.7079ZM97.3602 97.9576L56.0881 93.7079L55.6784 97.6869L96.9505 101.937L97.3602 97.9576ZM102.623 104.582C103.04 101.273 100.677 98.2991 97.3602 97.9576L96.9505 101.937C98.0346 102.048 98.791 103 98.6546 104.081L102.623 104.582ZM95.9483 109.885C99.2301 110.223 102.211 107.855 102.623 104.582L98.6546 104.081C98.5139 105.198 97.4776 106.021 96.358 105.906L95.9483 109.885ZM54.6763 105.635L95.9483 109.885L96.358 105.906L55.086 101.656L54.6763 105.635ZM49.4133 99.0112C48.9961 102.32 51.3591 105.294 54.6763 105.635L55.086 101.656C54.0019 101.545 53.2455 100.593 53.3818 99.5116L49.4133 99.0112ZM1401.94 214.968C1401.57 213.9 1402.17 212.834 1403.29 212.595L1402.46 208.682C1399 209.418 1397 212.924 1398.16 216.277L1401.94 214.968ZM1404.53 216.44C1403.45 216.668 1402.31 216.021 1401.94 214.968L1398.16 216.277C1399.18 219.217 1402.29 221.003 1405.36 220.353L1404.53 216.44ZM1469.32 201.056C1447.66 207.166 1415.35 214.147 1404.53 216.44L1405.36 220.353C1416.16 218.063 1448.6 211.057 1470.4 204.906L1469.32 201.056ZM1533.34 180.006C1522.89 183.733 1491.36 194.837 1469.32 201.056L1470.4 204.906C1492.6 198.645 1524.25 187.496 1534.68 183.773L1533.34 180.006ZM1534.39 177.746C1534.73 178.732 1534.26 179.676 1533.34 180.006L1534.68 183.773C1537.72 182.688 1539.21 179.445 1538.17 176.437L1534.39 177.746ZM1531.48 176.337C1532.62 175.931 1533.98 176.579 1534.39 177.746L1538.17 176.437C1537.04 173.183 1533.39 171.412 1530.14 172.569L1531.48 176.337ZM1467.76 197.271C1489.57 191.117 1520.52 180.242 1531.48 176.337L1530.14 172.569C1519.17 176.478 1488.34 187.309 1466.67 193.421L1467.76 197.271ZM1403.29 212.595C1414.63 210.187 1446.33 203.316 1467.76 197.271L1466.67 193.421C1445.39 199.425 1413.82 206.272 1402.46 208.682L1403.29 212.595Z" fill="#00AACD"/>
</svg>
