<svg width="1440" height="283" viewBox="0 0 1440 283" fill="none" xmlns="http://www.w3.org/2000/svg">
<path d="M281.839 2.0269C104.738 0.424734 -67.9083 70.7871 -140 106.168V351H1580V88.645C1560.62 79.1322 1426.98 2.02738 1252.53 2.02738C1078.08 2.02738 967.39 136.209 787.331 139.213C607.272 142.218 503.215 4.02961 281.839 2.0269Z" fill="#00ABDB" stroke="#00ABDB" stroke-width="4"/>
<path fill-rule="evenodd" clip-rule="evenodd" d="M-126.954 165.575C-49.226 127.217 107.466 49.8907 265.516 36.4997C356.465 28.794 400.688 32.9997 498.867 49.9997C519.343 58.4802 539.127 67.4222 558.629 76.237L558.635 76.2397L558.637 76.2405C631.63 109.234 700.68 140.444 787.331 139C877.262 137.502 949.888 103.325 1021.8 69.4865C1059.51 51.739 1097.03 34.0844 1136.74 21.286C1173.97 13.5005 1222.97 8.83398 1278.03 13.5001C1389.07 22.9103 1518.38 97.2889 1564.56 123.849L1564.56 123.851C1572.02 128.138 1577.31 131.18 1580 132.5V350.5H-140V172C-135.943 170.011 -131.589 167.863 -126.954 165.575ZM1194.18 22.7926C1192.25 22.7647 1190.62 24.1378 1190.27 26.0296C1189.83 28.4331 1191.64 30.6467 1194.09 30.6864C1209.91 30.9425 1262.42 32.2453 1297.41 38.4997C1331.73 44.6341 1380.4 61.1119 1395.14 66.2408C1397.44 67.0437 1399.93 65.5908 1400.37 63.1865C1400.72 61.2959 1399.68 59.4515 1397.87 58.817C1384.92 54.2845 1334.26 36.9539 1298.86 30.6268C1262.79 24.1786 1208.08 22.9936 1194.18 22.7926ZM342.929 46.8513C341.003 46.8235 339.37 48.1966 339.021 50.0884C338.579 52.4919 340.396 54.7055 342.842 54.7451C358.657 55.0013 411.177 56.304 446.166 62.5584C480.484 68.6928 529.156 85.1706 543.888 90.2995C546.194 91.1024 548.683 89.6495 549.126 87.2452C549.474 85.3547 548.436 83.5102 546.624 82.8758C533.677 78.3433 483.012 61.0126 447.615 54.6855C411.541 48.2373 356.834 47.0524 342.929 46.8513ZM1164.82 46.461C1164.91 44.5302 1166.55 43.0374 1168.48 43.1269L1202.15 44.6864C1204.08 44.7758 1205.57 46.4136 1205.48 48.3444C1205.39 50.2753 1203.74 51.768 1201.81 51.6786L1168.15 50.1191C1166.21 50.0296 1164.73 48.3919 1164.82 46.461ZM1133.94 59.162C1132.01 59.0726 1130.37 60.5653 1130.28 62.4962C1130.18 64.427 1131.67 66.0648 1133.6 66.1542L1162.94 67.5132C1164.87 67.6026 1166.51 66.1099 1166.61 64.179C1166.7 62.2482 1165.21 60.6104 1163.28 60.521L1133.94 59.162ZM1211.96 67.5161C1212.17 65.5937 1213.9 64.1957 1215.82 64.3936L1243.64 67.2563C1245.57 67.4542 1246.96 69.1731 1246.75 71.0955C1246.55 73.018 1244.82 74.416 1242.9 74.2181L1215.07 71.3553C1213.15 71.1574 1211.76 69.4385 1211.96 67.5161ZM1260.83 50.3584C1258.91 50.1605 1257.18 51.5585 1256.98 53.481C1256.77 55.4034 1258.17 57.1223 1260.09 57.3201L1292.48 60.6528C1294.4 60.8506 1296.13 59.4526 1296.33 57.5302C1296.54 55.6078 1295.15 53.8889 1293.22 53.691L1260.83 50.3584ZM1295.86 77.4675C1296.13 75.5525 1297.9 74.2094 1299.82 74.4676L1335.79 79.3147C1337.71 79.5729 1339.05 81.3346 1338.78 83.2496C1338.51 85.1646 1336.74 86.5077 1334.82 86.2495L1298.84 81.4024C1296.93 81.1442 1295.59 79.3825 1295.86 77.4675ZM1349.31 64.7457C1347.42 64.3339 1345.54 65.5298 1345.12 67.4167C1344.69 69.3037 1345.87 71.1672 1347.76 71.579L1393.29 81.494C1395.18 81.9058 1397.06 80.7099 1397.48 78.823C1397.91 76.936 1396.73 75.0725 1394.84 74.6607L1349.31 64.7457Z" fill="#008FCF"/>
<path d="M265.516 36.4997L265.347 34.5069L265.347 34.5069L265.516 36.4997ZM-126.954 165.575L-127.839 163.782L-127.839 163.782L-126.954 165.575ZM498.867 49.9997L499.633 48.1519L499.427 48.0669L499.209 48.029L498.867 49.9997ZM558.629 76.237L557.805 78.0595L557.807 78.0603L558.629 76.237ZM558.635 76.2397L559.489 74.4312L559.473 74.4237L559.457 74.4164L558.635 76.2397ZM558.637 76.2405L557.783 78.049L557.798 78.0561L557.813 78.063L558.637 76.2405ZM787.331 139L787.364 141L787.364 141L787.331 139ZM1021.8 69.4865L1020.94 67.6768L1020.94 67.6768L1021.8 69.4865ZM1136.74 21.286L1136.33 19.3283L1136.22 19.35L1136.12 19.3824L1136.74 21.286ZM1278.03 13.5001L1277.86 15.493L1277.86 15.493L1278.03 13.5001ZM1564.56 123.849L1565.61 122.147L1565.58 122.131L1565.56 122.116L1564.56 123.849ZM1564.56 123.851L1563.51 125.554L1563.54 125.57L1563.57 125.585L1564.56 123.851ZM1580 132.5H1582V131.253L1580.88 130.704L1580 132.5ZM1580 350.5V352.5H1582V350.5H1580ZM-140 350.5H-142V352.5H-140V350.5ZM-140 172L-140.88 170.204L-142 170.753V172H-140ZM1190.27 26.0296L1188.3 25.6675L1188.3 25.6676L1190.27 26.0296ZM1194.18 22.7926L1194.15 24.7924L1194.15 24.7924L1194.18 22.7926ZM1194.09 30.6864L1194.12 28.6866L1194.12 28.6866L1194.09 30.6864ZM1297.41 38.4997L1297.77 36.5309L1297.77 36.5309L1297.41 38.4997ZM1395.14 66.2408L1394.48 68.1296L1394.48 68.1296L1395.14 66.2408ZM1400.37 63.1865L1398.41 62.8244L1398.41 62.8245L1400.37 63.1865ZM1397.87 58.817L1397.21 60.7047L1397.21 60.7047L1397.87 58.817ZM1298.86 30.6268L1298.51 32.5956L1298.51 32.5956L1298.86 30.6268ZM339.021 50.0884L340.988 50.4504L340.988 50.4504L339.021 50.0884ZM342.929 46.8513L342.957 44.8515L342.957 44.8515L342.929 46.8513ZM342.842 54.7451L342.81 56.7448L342.81 56.7448L342.842 54.7451ZM446.166 62.5584L445.814 64.5272L445.814 64.5272L446.166 62.5584ZM543.888 90.2995L543.231 92.1884L543.231 92.1884L543.888 90.2995ZM549.126 87.2452L547.159 86.8832L547.159 86.8832L549.126 87.2452ZM546.624 82.8758L547.285 80.9881L547.285 80.9881L546.624 82.8758ZM447.615 54.6855L447.967 52.7168L447.967 52.7168L447.615 54.6855ZM1168.48 43.1269L1168.58 41.129L1168.58 41.129L1168.48 43.1269ZM1164.82 46.461L1162.82 46.3647L1162.82 46.3648L1164.82 46.461ZM1202.15 44.6864L1202.24 42.6885L1202.24 42.6885L1202.15 44.6864ZM1205.48 48.3444L1203.48 48.2481L1203.48 48.2482L1205.48 48.3444ZM1201.81 51.6786L1201.91 49.6807L1201.91 49.6807L1201.81 51.6786ZM1168.15 50.1191L1168.24 48.1212L1168.24 48.1212L1168.15 50.1191ZM1130.28 62.4962L1128.28 62.3998L1128.28 62.3999L1130.28 62.4962ZM1133.94 59.162L1133.85 61.1599L1133.85 61.1599L1133.94 59.162ZM1133.6 66.1542L1133.7 64.1564L1133.7 64.1564L1133.6 66.1542ZM1162.94 67.5132L1163.03 65.5153L1163.03 65.5153L1162.94 67.5132ZM1166.61 64.179L1168.6 64.2754L1168.6 64.2752L1166.61 64.179ZM1163.28 60.521L1163.37 58.5231L1163.37 58.5231L1163.28 60.521ZM1215.82 64.3936L1216.02 62.4041L1216.02 62.4041L1215.82 64.3936ZM1211.96 67.5161L1209.98 67.3031L1209.98 67.3032L1211.96 67.5161ZM1243.64 67.2563L1243.85 65.2668L1243.85 65.2668L1243.64 67.2563ZM1246.75 71.0955L1248.74 71.3086L1248.74 71.3084L1246.75 71.0955ZM1242.9 74.2181L1242.69 76.2076L1242.69 76.2076L1242.9 74.2181ZM1215.07 71.3553L1215.28 69.3658L1215.28 69.3658L1215.07 71.3553ZM1256.98 53.481L1254.99 53.2679L1254.99 53.2681L1256.98 53.481ZM1260.83 50.3584L1261.04 48.3689L1261.04 48.3689L1260.83 50.3584ZM1260.09 57.3201L1259.88 59.3096L1259.88 59.3096L1260.09 57.3201ZM1292.48 60.6528L1292.68 58.6633L1292.68 58.6633L1292.48 60.6528ZM1293.22 53.691L1293.43 51.7015L1293.43 51.7015L1293.22 53.691ZM1299.82 74.4676L1299.55 76.4497L1299.55 76.4497L1299.82 74.4676ZM1295.86 77.4675L1293.88 77.1897L1293.88 77.1898L1295.86 77.4675ZM1335.79 79.3147L1335.53 81.2968L1335.53 81.2968L1335.79 79.3147ZM1338.78 83.2496L1340.76 83.5274L1340.76 83.5273L1338.78 83.2496ZM1334.82 86.2495L1335.09 84.2674L1335.09 84.2674L1334.82 86.2495ZM1298.84 81.4024L1298.58 83.3845L1298.58 83.3845L1298.84 81.4024ZM1345.12 67.4167L1343.17 66.9746L1343.17 66.9746L1345.12 67.4167ZM1349.31 64.7457L1348.89 66.6998L1348.89 66.6998L1349.31 64.7457ZM1347.76 71.579L1348.19 69.6248L1348.19 69.6248L1347.76 71.579ZM1393.29 81.494L1393.71 79.5399L1393.71 79.5399L1393.29 81.494ZM1397.48 78.823L1399.43 79.2651L1399.43 79.2651L1397.48 78.823ZM1394.84 74.6607L1395.26 72.7065L1395.26 72.7065L1394.84 74.6607ZM265.347 34.5069C106.866 47.9344 -50.1507 125.443 -127.839 163.782L-126.069 167.369C-48.3013 128.991 108.066 51.847 265.685 38.4926L265.347 34.5069ZM499.209 48.029C400.919 31.0099 356.516 26.7825 265.347 34.5069L265.685 38.4926C356.413 30.8055 400.457 34.9895 498.526 51.9704L499.209 48.029ZM559.453 74.4145C539.955 65.6016 520.143 56.6465 499.633 48.1519L498.102 51.8475C518.544 60.3138 538.299 69.2427 557.805 78.0595L559.453 74.4145ZM559.457 74.4164L559.451 74.4137L557.807 78.0603L557.813 78.063L559.457 74.4164ZM559.491 74.432L559.489 74.4312L557.781 78.0482L557.783 78.049L559.491 74.432ZM787.298 137C701.157 138.436 632.496 107.43 559.46 74.418L557.813 78.063C630.765 111.037 700.204 142.452 787.364 141L787.298 137ZM1020.94 67.6768C948.998 101.534 876.74 135.51 787.298 137L787.364 141C877.783 139.493 950.778 105.117 1022.65 71.2961L1020.94 67.6768ZM1136.12 19.3824C1096.27 32.2267 1058.64 49.9383 1020.94 67.6768L1022.65 71.2961C1060.38 53.5396 1097.78 35.9421 1137.35 23.1896L1136.12 19.3824ZM1278.2 11.5073C1222.93 6.82371 1173.74 11.5056 1136.33 19.3283L1137.15 23.2436C1174.21 15.4953 1223.01 10.8442 1277.86 15.493L1278.2 11.5073ZM1565.56 122.116C1542.46 108.833 1498.51 83.5522 1446.43 60.4156C1394.37 37.2912 1334.05 16.2402 1278.2 11.5073L1277.86 15.493C1333.05 20.1702 1392.9 41.0136 1444.81 64.0711C1496.68 87.1165 1540.48 112.306 1563.56 125.583L1565.56 122.116ZM1565.61 122.148L1565.61 122.147L1563.51 125.552L1563.51 125.554L1565.61 122.148ZM1580.88 130.704C1578.26 129.421 1573.06 126.428 1565.56 122.117L1563.57 125.585C1570.98 129.849 1576.35 132.938 1579.12 134.296L1580.88 130.704ZM1582 350.5V132.5H1578V350.5H1582ZM-140 352.5H1580V348.5H-140V352.5ZM-142 172V350.5H-138V172H-142ZM-127.839 163.782C-132.475 166.069 -136.826 168.217 -140.88 170.204L-139.12 173.796C-135.06 171.806 -130.703 169.656 -126.069 167.369L-127.839 163.782ZM1192.24 26.3917C1192.41 25.4361 1193.22 24.779 1194.15 24.7924L1194.21 20.7928C1191.28 20.7505 1188.82 22.8396 1188.3 25.6675L1192.24 26.3917ZM1194.12 28.6866C1192.91 28.667 1192.02 27.5753 1192.24 26.3917L1188.3 25.6676C1187.64 29.291 1190.38 32.6265 1194.06 32.6861L1194.12 28.6866ZM1297.77 36.5309C1262.59 30.244 1209.92 28.9425 1194.12 28.6866L1194.06 32.6861C1209.89 32.9426 1262.25 34.2467 1297.06 40.4685L1297.77 36.5309ZM1395.79 64.352C1381.08 59.2291 1332.26 42.6973 1297.77 36.5309L1297.06 40.4685C1331.2 46.5709 1379.73 62.9948 1394.48 68.1296L1395.79 64.352ZM1398.41 62.8245C1398.19 64.0278 1396.94 64.7502 1395.79 64.352L1394.48 68.1296C1397.95 69.3372 1401.68 67.1538 1402.34 63.5485L1398.41 62.8245ZM1397.21 60.7047C1398.07 61.004 1398.58 61.8746 1398.41 62.8244L1402.34 63.5486C1402.86 60.7172 1401.3 57.899 1398.53 56.9294L1397.21 60.7047ZM1298.51 32.5956C1333.73 38.8902 1384.24 56.1653 1397.21 60.7047L1398.53 56.9294C1385.61 52.4038 1334.79 35.0176 1299.22 28.658L1298.51 32.5956ZM1194.15 24.7924C1208.07 24.9938 1262.62 26.1804 1298.51 32.5956L1299.22 28.658C1262.96 22.1767 1208.09 20.9935 1194.21 20.7928L1194.15 24.7924ZM340.988 50.4504C341.164 49.4948 341.974 48.8377 342.9 48.8511L342.957 44.8515C340.032 44.8092 337.575 46.8983 337.054 49.7263L340.988 50.4504ZM342.875 52.7454C341.661 52.7257 340.77 51.634 340.988 50.4504L337.054 49.7263C336.387 53.3497 339.132 56.6853 342.81 56.7448L342.875 52.7454ZM446.518 60.5896C411.347 54.3027 358.671 53.0012 342.875 52.7454L342.81 56.7448C358.644 57.0013 411.007 58.3054 445.814 64.5272L446.518 60.5896ZM544.546 88.4107C529.83 83.2878 481.015 66.756 446.518 60.5896L445.814 64.5272C479.953 70.6296 528.481 87.0535 543.231 92.1884L544.546 88.4107ZM547.159 86.8832C546.937 88.0866 545.689 88.8089 544.546 88.4107L543.231 92.1884C546.699 93.396 550.429 91.2125 551.093 87.6073L547.159 86.8832ZM545.963 84.7634C546.818 85.0628 547.334 85.9334 547.159 86.8832L551.093 87.6073C551.614 84.7759 550.054 81.9577 547.285 80.9881L545.963 84.7634ZM447.263 56.6543C482.478 62.9489 532.996 80.2241 545.963 84.7634L547.285 80.9881C534.357 76.4625 483.545 59.0764 447.967 52.7168L447.263 56.6543ZM342.9 48.8511C356.826 49.0525 411.374 50.2392 447.263 56.6543L447.967 52.7168C411.708 46.2355 356.841 45.0523 342.957 44.8515L342.9 48.8511ZM1168.58 41.129C1165.54 40.9885 1162.97 43.332 1162.82 46.3647L1166.82 46.5574C1166.86 45.7283 1167.56 45.0863 1168.39 45.1247L1168.58 41.129ZM1202.24 42.6885L1168.58 41.129L1168.39 45.1247L1202.06 46.6842L1202.24 42.6885ZM1207.48 48.4408C1207.62 45.4051 1205.28 42.8291 1202.24 42.6885L1202.06 46.6842C1202.88 46.7225 1203.52 47.4221 1203.48 48.2481L1207.48 48.4408ZM1201.72 53.6764C1204.75 53.8169 1207.33 51.4734 1207.48 48.4407L1203.48 48.2482C1203.44 49.0771 1202.74 49.7191 1201.91 49.6807L1201.72 53.6764ZM1168.05 52.1169L1201.72 53.6764L1201.91 49.6807L1168.24 48.1212L1168.05 52.1169ZM1162.82 46.3648C1162.67 49.4003 1165.02 51.9763 1168.05 52.1169L1168.24 48.1212C1167.41 48.083 1166.78 47.3835 1166.82 46.5573L1162.82 46.3648ZM1132.27 62.5925C1132.31 61.7635 1133.02 61.1215 1133.85 61.1599L1134.03 57.1642C1131 57.0237 1128.43 59.3672 1128.28 62.3998L1132.27 62.5925ZM1133.7 64.1564C1132.87 64.1181 1132.23 63.4186 1132.27 62.5924L1128.28 62.3999C1128.13 65.4354 1130.48 68.0115 1133.51 68.1521L1133.7 64.1564ZM1163.03 65.5153L1133.7 64.1564L1133.51 68.1521L1162.85 69.511L1163.03 65.5153ZM1164.61 64.0826C1164.57 64.9117 1163.86 65.5537 1163.03 65.5153L1162.85 69.511C1165.88 69.6515 1168.46 67.308 1168.6 64.2754L1164.61 64.0826ZM1163.19 62.5188C1164.01 62.5571 1164.65 63.2566 1164.61 64.0828L1168.6 64.2752C1168.75 61.2398 1166.41 58.6637 1163.37 58.5231L1163.19 62.5188ZM1133.85 61.1599L1163.19 62.5188L1163.37 58.5231L1134.03 57.1642L1133.85 61.1599ZM1216.02 62.4041C1213.01 62.0934 1210.3 64.2857 1209.98 67.3031L1213.95 67.7291C1214.04 66.9017 1214.79 66.2979 1215.62 66.3831L1216.02 62.4041ZM1243.85 65.2668L1216.02 62.4041L1215.62 66.3831L1243.44 69.2458L1243.85 65.2668ZM1248.74 71.3084C1249.06 68.2846 1246.87 65.5781 1243.85 65.2668L1243.44 69.2458C1244.26 69.3303 1244.85 70.0616 1244.76 70.8826L1248.74 71.3084ZM1242.69 76.2076C1245.71 76.5182 1248.42 74.326 1248.74 71.3086L1244.76 70.8825C1244.67 71.71 1243.93 72.3138 1243.1 72.2286L1242.69 76.2076ZM1214.87 73.3448L1242.69 76.2076L1243.1 72.2286L1215.28 69.3658L1214.87 73.3448ZM1209.98 67.3032C1209.65 70.3271 1211.84 73.0335 1214.87 73.3448L1215.28 69.3658C1214.46 69.2813 1213.87 68.55 1213.95 67.729L1209.98 67.3032ZM1258.97 53.694C1259.06 52.8665 1259.8 52.2627 1260.63 52.3479L1261.04 48.3689C1258.02 48.0583 1255.31 50.2505 1254.99 53.2679L1258.97 53.694ZM1260.29 55.3307C1259.47 55.2462 1258.88 54.5149 1258.97 53.6938L1254.99 53.2681C1254.67 56.2919 1256.86 58.9984 1259.88 59.3096L1260.29 55.3307ZM1292.68 58.6633L1260.29 55.3307L1259.88 59.3096L1292.27 62.6422L1292.68 58.6633ZM1294.34 57.3173C1294.25 58.1446 1293.51 58.7484 1292.68 58.6633L1292.27 62.6422C1295.29 62.9529 1298 60.7607 1298.32 57.7431L1294.34 57.3173ZM1293.02 55.6805C1293.84 55.765 1294.43 56.4963 1294.34 57.3173L1298.32 57.7431C1298.64 54.7192 1296.45 52.0128 1293.43 51.7015L1293.02 55.6805ZM1260.63 52.3479L1293.02 55.6805L1293.43 51.7015L1261.04 48.3689L1260.63 52.3479ZM1300.08 72.4855C1297.08 72.0804 1294.3 74.1851 1293.88 77.1897L1297.84 77.7452C1297.96 76.9199 1298.72 76.3384 1299.55 76.4497L1300.08 72.4855ZM1336.06 77.3326L1300.08 72.4855L1299.55 76.4497L1335.53 81.2968L1336.06 77.3326ZM1340.76 83.5273C1341.18 80.5143 1339.08 77.7389 1336.06 77.3326L1335.53 81.2968C1336.34 81.407 1336.91 82.1549 1336.8 82.972L1340.76 83.5273ZM1334.55 88.2316C1337.56 88.6367 1340.34 86.532 1340.76 83.5274L1336.8 82.9719C1336.68 83.7972 1335.91 84.3787 1335.09 84.2674L1334.55 88.2316ZM1298.58 83.3845L1334.55 88.2316L1335.09 84.2674L1299.11 79.4203L1298.58 83.3845ZM1293.88 77.1898C1293.46 80.2027 1295.56 82.9782 1298.58 83.3845L1299.11 79.4203C1298.29 79.3102 1297.73 78.5622 1297.84 77.7451L1293.88 77.1898ZM1347.07 67.8589C1347.25 67.0428 1348.07 66.5217 1348.89 66.6998L1349.74 62.7915C1346.78 62.146 1343.84 64.0168 1343.17 66.9746L1347.07 67.8589ZM1348.19 69.6248C1347.39 69.4495 1346.88 68.6622 1347.07 67.8589L1343.17 66.9746C1342.49 69.9453 1344.36 72.8849 1347.34 73.5332L1348.19 69.6248ZM1393.71 79.5399L1348.19 69.6248L1347.34 73.5332L1392.86 83.4482L1393.71 79.5399ZM1395.53 78.3808C1395.35 79.197 1394.53 79.718 1393.71 79.5399L1392.86 83.4482C1395.82 84.0937 1398.76 82.2228 1399.43 79.2651L1395.53 78.3808ZM1394.41 76.6149C1395.21 76.7902 1395.72 77.5775 1395.53 78.3808L1399.43 79.2651C1400.11 76.2945 1398.24 73.3548 1395.26 72.7065L1394.41 76.6149ZM1348.89 66.6998L1394.41 76.6149L1395.26 72.7065L1349.74 62.7915L1348.89 66.6998Z" fill="#008FCF"/>
</svg>
